<?xml version="1.0" encoding="UTF-8" standalone="no"?>
<!DOCTYPE svg PUBLIC "-//W3C//DTD SVG 1.1//EN" "http://www.w3.org/Graphics/SVG/1.1/DTD/svg11.dtd">
<svg width="100%" height="100%" viewBox="0 0 2400 2409" version="1.1" xmlns="http://www.w3.org/2000/svg" xmlns:xlink="http://www.w3.org/1999/xlink" xml:space="preserve" xmlns:serif="http://www.serif.com/" style="fill-rule:evenodd;clip-rule:evenodd;stroke-linejoin:round;stroke-miterlimit:2;">
    <g transform="matrix(9.917902,0,0,9.917902,1849.920148,579.717893)">
        <path d="M0,123.52C1.03,123.52 1.87,122.68 1.87,121.65C1.87,120.61 1.03,119.77 0,119.77C-1.04,119.77 -1.88,120.61 -1.88,121.65C-1.88,122.68 -1.04,123.52 0,123.52M13.79,115.42L-0.2,140.18L-12.75,117.98L-13.19,117.21L-13.19,59.58C-13.19,31.169 -35.569,7.341 -63.97,6.608C-94.285,5.825 -118.948,30.918 -117.456,61.383C-116.115,88.769 -93.298,110.646 -65.88,110.917C-58.677,110.989 -51.814,109.603 -45.56,107.03C-45.08,106.84 -44.61,106.64 -44.14,106.42C-44.12,106.41 -44.11,106.4 -44.09,106.4C-42.53,105.826 -40.828,105.545 -39.05,105.596C-32.172,105.793 -26.395,111.3 -25.888,118.162C-25.486,123.612 -28.284,128.439 -32.6,130.96C-33.58,131.41 -34.58,131.84 -35.58,132.25C-44.83,136.03 -54.96,138.11 -65.57,138.11C-110.029,138.11 -145.955,101.546 -144.897,56.837C-143.886,14.103 -108.552,-20.475 -65.807,-20.6C-45.644,-20.659 -27.225,-13.198 -13.19,-0.86C3.35,13.68 13.79,35 13.79,58.76L13.79,115.42ZM12.35,-51.97L-143.41,-51.97C-163.209,-51.97 -179.26,-35.919 -179.26,-16.12L-179.26,139.64C-179.26,159.439 -163.209,175.49 -143.41,175.49L12.35,175.49C32.149,175.49 48.2,159.439 48.2,139.64L48.2,-16.12C48.2,-35.919 32.149,-51.97 12.35,-51.97" style="fill:rgb(255,255,255);fill-rule:nonzero;"/>
    </g>
</svg>
